<svg width="302" height="61" viewBox="0 0 302 61" fill="none" xmlns="http://www.w3.org/2000/svg">
<path d="M62.9989 0.6698H6.42432V60.1594H62.9989V0.6698Z" fill="#FCF6EC"/>
<path d="M51.9821 53.2156H17.0993C16.9999 53.2156 16.9046 53.2571 16.8344 53.3309C16.7642 53.4048 16.7247 53.505 16.7247 53.6094C16.7236 53.6615 16.7325 53.7132 16.7509 53.7615C16.7694 53.8098 16.7969 53.8537 16.8319 53.8905C16.8669 53.9273 16.9087 53.9563 16.9546 53.9757C17.0006 53.9951 17.0498 54.0045 17.0993 54.0033H51.9821C52.0315 54.0045 52.0808 53.9951 52.1267 53.9757C52.1726 53.9563 52.2144 53.9273 52.2494 53.8905C52.2844 53.8537 52.3119 53.8098 52.3304 53.7615C52.3488 53.7132 52.3577 53.6615 52.3566 53.6094C52.3566 53.505 52.3172 53.4048 52.2469 53.3309C52.1767 53.2571 52.0814 53.2156 51.9821 53.2156Z" fill="#E76852"/>
<path d="M68.6907 30.1063C64.1557 30.1063 59.8064 32.0007 56.5996 35.3727C53.3928 38.7447 51.5913 43.3181 51.5913 48.0868C51.5913 48.1912 51.6308 48.2914 51.701 48.3653C51.7713 48.4391 51.8665 48.4806 51.9659 48.4806C52.0154 48.4818 52.0646 48.4724 52.1105 48.453C52.1565 48.4337 52.1982 48.4047 52.2332 48.3679C52.2682 48.3311 52.2958 48.2872 52.3142 48.2389C52.3326 48.1906 52.3415 48.1388 52.3404 48.0868C52.3404 45.829 52.7633 43.5933 53.585 41.5074C54.4067 39.4215 55.611 37.5262 57.1293 35.9297C60.1956 32.7054 64.3544 30.894 68.6907 30.894C68.7402 30.8952 68.7894 30.8858 68.8354 30.8664C68.8813 30.8471 68.923 30.8181 68.958 30.7813C68.993 30.7445 69.0206 30.7006 69.039 30.6523C69.0575 30.604 69.0664 30.5522 69.0653 30.5002C69.0653 30.3957 69.0258 30.2955 68.9556 30.2217C68.8853 30.1478 68.7901 30.1063 68.6907 30.1063Z" fill="#E76852"/>
<path d="M0.374559 17.5714C0.275871 17.5735 0.181804 17.6157 0.112006 17.6891C0.0422078 17.7625 0.00207831 17.8614 0 17.9652C0 18.0697 0.0394623 18.1699 0.109706 18.2437C0.179949 18.3176 0.275219 18.3591 0.374559 18.3591C7.83073 18.368 14.9808 21.4784 20.2637 27.0111C25.5467 32.5438 28.5336 40.0496 28.5723 47.8898C28.5723 47.9498 28.5723 48.0097 28.5723 48.0696C28.5723 48.1741 28.6118 48.2743 28.682 48.3481C28.7522 48.422 28.8475 48.4635 28.9469 48.4635C28.9963 48.4647 29.0456 48.4553 29.0915 48.4359C29.1374 48.4165 29.1792 48.3875 29.2142 48.3507C29.2492 48.3139 29.2767 48.27 29.2952 48.2217C29.3136 48.1734 29.3225 48.1217 29.3214 48.0696V47.8898C29.3447 40.7353 31.1438 33.7111 34.5408 27.512C37.6996 33.2886 39.4794 39.7845 39.7276 46.4428C39.7276 46.9822 39.6788 47.5217 39.6788 48.0696C39.6788 48.1221 39.6887 48.174 39.708 48.2224C39.7274 48.2707 39.7557 48.3145 39.7913 48.3512C39.827 48.3879 39.8692 48.4167 39.9156 48.436C39.962 48.4553 40.0116 48.4646 40.0615 48.4635H40.1429C40.2416 48.4613 40.3357 48.4191 40.4055 48.3457C40.4753 48.2723 40.5154 48.1734 40.5175 48.0696C40.5175 47.5217 40.5175 46.9822 40.5175 46.4428C40.9223 38.8872 44.0569 31.7797 49.2802 26.5738C54.5035 21.3679 61.4208 18.4569 68.6175 18.4361C68.7084 18.4221 68.7914 18.3741 68.8514 18.301C68.9115 18.2279 68.9445 18.1346 68.9445 18.038C68.9445 17.9414 68.9115 17.848 68.8514 17.775C68.7914 17.7019 68.7084 17.6539 68.6175 17.6399C61.8461 17.6518 55.2926 20.1574 50.0953 24.7216C44.898 29.2857 41.3853 35.62 40.1673 42.6241C39.4853 37.0105 37.7321 31.5996 35.0131 26.7157C38.5104 20.6078 43.448 15.5527 49.348 12.0397C55.248 8.52672 61.9106 6.67481 68.6908 6.66322C68.7816 6.64917 68.8647 6.60122 68.9247 6.52812C68.9848 6.45503 69.0178 6.36167 69.0178 6.26508C69.0178 6.1685 68.9848 6.07513 68.9247 6.00204C68.8647 5.92894 68.7816 5.88099 68.6908 5.86694C61.8411 5.87033 55.1064 7.71818 49.1284 11.2344C43.1504 14.7506 38.1283 19.818 34.5408 25.9537C30.9474 19.8205 25.9215 14.7559 19.9413 11.2415C13.9611 7.72721 7.22532 5.87997 0.374559 5.87551C0.288565 5.89446 0.211393 5.94396 0.156004 6.01568C0.100615 6.0874 0.0703816 6.17697 0.0703816 6.26936C0.0703816 6.36175 0.100615 6.45133 0.156004 6.52305C0.211393 6.59477 0.288565 6.64426 0.374559 6.66322C7.16289 6.66679 13.8352 8.51486 19.7443 12.0282C25.6534 15.5415 30.5989 20.6009 34.1011 26.7157C31.3394 31.6458 29.566 37.1179 28.8899 42.7954C27.7146 35.7371 24.212 29.3399 18.9973 24.7271C13.7826 20.1143 7.18905 17.5807 0.374559 17.5714Z" fill="#E76852"/>
<path d="M17.0992 48.4806C17.1979 48.4784 17.292 48.4362 17.3618 48.3629C17.4316 48.2895 17.4717 48.1905 17.4738 48.0868C17.4738 43.3181 15.6723 38.7447 12.4655 35.3727C9.25874 32.0007 4.90944 30.1063 0.37439 30.1063C0.283515 30.1204 0.200478 30.1683 0.140438 30.2414C0.0803988 30.3145 0.0473633 30.4079 0.0473633 30.5045C0.0473633 30.601 0.0803988 30.6944 0.140438 30.7675C0.200478 30.8406 0.283515 30.8885 0.37439 30.9026C4.70727 30.9071 8.86146 32.7191 11.9253 35.9407C14.9891 39.1624 16.7122 43.5306 16.7165 48.0868C16.7165 48.1392 16.7265 48.1911 16.7458 48.2395C16.7651 48.2879 16.7935 48.3317 16.8291 48.3683C16.8648 48.405 16.907 48.4339 16.9534 48.4531C16.9998 48.4724 17.0494 48.4818 17.0992 48.4806Z" fill="#E76852"/>
<path d="M81.8086 40.7661V20.217H86.8326C90.9038 20.217 93.1268 22.5802 93.1268 25.6968C93.1268 27.4092 92.5486 28.5309 90.9853 29.8409C91.9531 30.236 92.7833 30.9321 93.3652 31.8362C93.9471 32.7403 94.2531 33.8094 94.2423 34.9011C94.2423 37.7095 92.7359 40.7918 87.6305 40.7918L81.8086 40.7661ZM86.8651 29.0617C90.6189 29.0617 91.1726 26.7842 91.1726 25.5855C91.1726 24.0529 90.3583 22.0493 86.7023 22.0493H83.771V29.0617H86.8651ZM87.4677 38.9081C89.9837 38.9081 92.2799 37.8464 92.2799 34.8754C92.2799 32.5379 90.3502 30.9283 87.4677 30.9283H83.771V38.9081H87.4677Z" fill="#E76852"/>
<path d="M114.892 41.1259C109.55 41.1259 104.551 36.5708 104.551 30.5944C104.611 27.7587 105.722 25.0596 107.646 23.0714C109.569 21.0832 112.155 19.9626 114.853 19.9481C117.55 19.9336 120.146 21.0263 122.09 22.9938C124.033 24.9612 125.169 27.6482 125.257 30.4831C125.206 33.3334 124.09 36.0479 122.15 38.0395C120.21 40.0312 117.603 41.1399 114.892 41.1259ZM114.892 21.6898C113.242 21.7051 111.634 22.233 110.269 23.2073C108.904 24.1816 107.843 25.5587 107.221 27.1652C106.598 28.7718 106.442 30.536 106.771 32.236C107.1 33.9359 107.899 35.4955 109.069 36.7186C110.239 37.9417 111.727 38.7736 113.346 39.1096C114.964 39.4456 116.641 39.2707 118.165 38.6068C119.689 37.943 120.993 36.82 121.911 35.379C122.83 33.9381 123.323 32.2436 123.328 30.5088C123.304 28.1642 122.403 25.9238 120.819 24.2731C119.236 22.6223 117.097 21.6942 114.867 21.6898H114.892Z" fill="#E76852"/>
<path d="M146.257 41.1259C140.916 41.1259 135.916 36.5708 135.916 30.5944C135.977 27.7587 137.087 25.0596 139.011 23.0714C140.935 21.0832 143.52 19.9626 146.218 19.9481C148.915 19.9336 151.512 21.0263 153.455 22.9938C155.398 24.9612 156.534 27.6482 156.623 30.4831C156.571 33.3334 155.455 36.0479 153.515 38.0395C151.576 40.0312 148.968 41.1399 146.257 41.1259ZM146.257 21.6898C144.608 21.7084 143.001 22.2392 141.638 23.2156C140.276 24.1919 139.218 25.5701 138.598 27.1769C137.978 28.7837 137.823 30.5474 138.154 32.2462C138.485 33.945 139.286 35.5031 140.456 36.7244C141.627 37.9458 143.115 38.776 144.733 39.1107C146.351 39.4453 148.027 39.2694 149.55 38.6051C151.074 37.9408 152.376 36.8178 153.294 35.3772C154.212 33.9366 154.704 32.2428 154.709 30.5088C154.683 28.162 153.779 25.9203 152.193 24.2695C150.606 22.6188 148.465 21.6919 146.233 21.6898H146.257Z" fill="#E76852"/>
<path d="M179.308 40.7663L172.794 31.8446L170.253 35.1239V40.7663H168.299V20.2172H170.253V32.0073H170.31L179.267 20.1915H181.775L174.031 30.2263L181.775 40.7663H179.308Z" fill="#E76852"/>
<path d="M210.543 35.3721C209.667 37.0933 208.368 38.5354 206.781 39.5476C205.194 40.5598 203.377 41.1049 201.521 41.1258C198.839 41.1258 196.266 40.0055 194.37 38.0112C192.473 36.0169 191.408 33.3121 191.408 30.4917C191.408 27.6713 192.473 24.9665 194.37 22.9722C196.266 20.9779 198.839 19.8575 201.521 19.8575C205.144 19.8575 208.922 22.0494 210.478 25.4743H208.279C207.521 24.317 206.506 23.3705 205.324 22.7158C204.141 22.0612 202.825 21.7179 201.488 21.7155C199.302 21.7903 197.226 22.7486 195.695 24.3912C194.163 26.0338 193.292 28.2342 193.264 30.5345C193.246 32.4029 193.804 34.2271 194.854 35.7343C195.904 37.2414 197.391 38.3503 199.09 38.895C200.79 39.4397 202.612 39.3908 204.283 38.7557C205.954 38.1207 207.385 36.9336 208.361 35.3721H210.543Z" fill="#E76852"/>
<path d="M222.203 40.7661V20.217H224.157V38.9081H232.251V40.7661H222.203Z" fill="#E76852"/>
<path d="M253.992 20.1915H255.946V33.206C255.946 38.4032 253.063 41.1002 249.277 41.1002C245.491 41.1002 242.649 38.5145 242.649 33.206V20.1915H244.603V33.2916C244.603 37.4271 246.72 39.2851 249.31 39.2851C251.557 39.2851 254.024 37.8124 254.024 33.3344L253.992 20.1915Z" fill="#E76852"/>
<path d="M268.29 40.7661V20.217H273.314C277.385 20.217 279.608 22.5802 279.608 25.6968C279.608 27.4092 279.03 28.5309 277.466 29.8409C278.434 30.236 279.264 30.9321 279.846 31.8362C280.428 32.7403 280.734 33.8094 280.723 34.9011C280.723 37.7095 279.217 40.7918 274.112 40.7918L268.29 40.7661ZM273.346 29.0617C277.1 29.0617 277.654 26.7842 277.654 25.5855C277.654 24.0529 276.839 22.0493 273.183 22.0493H270.252V29.0617H273.346ZM273.949 38.9081C276.465 38.9081 278.761 37.8464 278.761 34.8754C278.761 32.5379 276.831 30.9283 273.949 30.9283H270.252V38.9081H273.949Z" fill="#E76852"/>
<path d="M299.647 25.5856C299.651 24.6437 299.302 23.738 298.676 23.0648C298.049 22.3916 297.196 22.0052 296.3 21.9895C295.858 21.9746 295.417 22.0532 295.003 22.2206C294.59 22.3879 294.213 22.6407 293.894 22.964C293.575 23.2873 293.321 23.6744 293.147 24.1026C292.973 24.5309 292.882 24.9914 292.88 25.4571C292.88 27.1696 293.849 28.197 296.528 28.882C300.599 29.9865 302 32.2212 302 34.8755C301.994 35.6531 301.841 36.4216 301.55 37.1367C301.26 37.8517 300.837 38.4991 300.307 39.0413C299.777 39.5835 299.15 40.0099 298.462 40.2957C297.774 40.5815 297.04 40.721 296.3 40.7063C295.542 40.7513 294.783 40.6309 294.07 40.3528C293.358 40.0747 292.708 39.6447 292.162 39.09C291.615 38.5352 291.183 37.8677 290.894 37.1291C290.604 36.3906 290.462 35.5971 290.478 34.7984H292.367C292.498 37.3671 293.996 38.9082 296.3 38.9082C296.798 38.9162 297.292 38.82 297.754 38.6252C298.216 38.4303 298.637 38.1409 298.991 37.7735C299.346 37.4062 299.628 36.9684 299.82 36.4856C300.012 36.0027 300.111 35.4845 300.111 34.9611C300.111 32.812 298.751 31.6047 296.276 30.8513C293.572 30.0464 290.991 29.1389 290.991 25.4743C291.051 24.0416 291.635 22.6888 292.623 21.6996C293.61 20.7103 294.923 20.1615 296.287 20.1682C297.651 20.1748 298.959 20.7364 299.938 21.7352C300.916 22.734 301.489 24.0925 301.536 25.5256L299.647 25.5856Z" fill="#E76852"/>
</svg>
